<?xml version="1.0" encoding="utf-8"?>
<!-- Generator: Adobe Illustrator 25.2.1, SVG Export Plug-In . SVG Version: 6.00 Build 0)  -->
<svg version="1.1" id="Layer_1" xmlns="http://www.w3.org/2000/svg" xmlns:xlink="http://www.w3.org/1999/xlink" x="0px" y="0px"
	 viewBox="0 0 762 1018" style="enable-background:new 0 0 762 1018;" xml:space="preserve">
<style type="text/css">
	.st0{fill:#262A6B;stroke:#000000;stroke-width:0.5;stroke-miterlimit:10;}
	.st1{fill:#63BC46;stroke:#000000;stroke-miterlimit:10;}
	.st2{fill:#4D7CBF;stroke:#171D10;stroke-miterlimit:10;}
	.st3{fill:#111343;stroke:#000000;stroke-width:0.5;stroke-miterlimit:10;}
	.st4{fill:#FAED25;stroke:#000000;stroke-width:0.75;stroke-miterlimit:10;}
	.st5{fill:#E6A923;stroke:#000000;stroke-width:0.5;stroke-miterlimit:10;}
	.st6{fill:#B82025;stroke:#000000;stroke-width:0.5;stroke-miterlimit:10;}
	.st7{fill:#A0D07E;stroke:#000000;stroke-width:0.5;stroke-miterlimit:10;}
</style>
<path id="NE" class="st0" d="M489.53,69.29c0.26,18.11,0.26,18.11,0.26,18.11h65.37c0,0,2.8,22.08-2.52,29.6
	c-5.32,7.52-23.86,22.47-27.86,27.21c-3.99,4.73-12.57,9.76-18.78,16.71s-37.57,48.07-37.57,48.07s-2.66,4.59-2.96,7.25
	c-0.3,2.66,0.44,24.85,0,28.4c-0.44,3.55-0.77,30.23-0.07,36.47s4.22,20.29,8.41,25.39c4.19,5.1,3.94,4.59,4.19,5.1
	c0.25,0.51,0.86,4.71,0.86,7.23c0,2.52,0.24,10.69,1.2,14.9c0.96,4.2,1.68,6.13,5.05,10.21c3.36,4.08,12.61,15.38,15.98,21.14
	c3.36,5.77,3.84,5.05,3.96,7.09c0.12,2.04,0.36,6.97-0.6,17.3s2.52,15.5,2.52,15.5l11.77,20.3c0,0,21.38,44.98,55.21,23.37
	c33.83-21.61,78.13-20.51,78.13-20.51c8.51-3.27,14.4-0.22,14.4-0.22s11.78,6.11,16.8,3.71c5.02-2.4,31.77,0.87,31.77,0.87V189.83
	h-44.04V91.08h-53.31V69.29H489.53z"/>
<path id="NW" class="st1" d="M207.39,144.94c78.58-0.68,78.58,19.62,78.58,19.62s-9.4,22.93,2.2,28.15s35.01,2.33,27.65,10.36
	s-19.18,11.15-21.19,16.95c-2.01,5.8-7.36,0.89-4.91,16.73s1.56,17.17,0.45,20.07c-1.12,2.9-10.71,14.5-10.71,14.5
	s26.14,10.73,39.06,24.31c12.91,13.58,22.76,22.39,22.76,22.39s1.3-4.4,15.28,2.33c13.99,6.73,13.99,6.73,13.99,6.73v41.7h-6.99
	l-0.78-8.55l-10.36-0.52v-3.63h-5.7v3.11l-18.13-11.66c0,0-2.07,4.14-3.89,3.63c-1.81-0.52-10.88-6.22-10.88-6.22
	s13.3,17.15,14.54,23.83c1.24,6.68-1.24,17.8-1.24,17.8s-18.02-6.02-27.02-4.38c-9,1.64-13.36,6.27-24.82,7.36
	c-11.45,1.09-9.82,10.09-36.54-1.09s-26.73-11.18-26.73-11.18l-4.64,9.09c0,0-14.67-8.41-19.4-18.93
	c-4.73-10.52-53.63-25.24-53.63-25.24l-41.54-11.04c0,0-0.94-2.35-1.93-6.02c-2.15-7.96-4.55-22.12,1.93-31.84
	c9.46-14.2,9.46-14.2,9.46-14.2l-86.12-0.61V146.1L207.39,144.94z"/>
<path id="N" class="st2" d="M371.2,327.36c0,0,13.55-2.93,19.02-12.67c5.46-9.74,5.94-7.84,5.94-7.84s7.16,1.73,10.26,1.73
	s15.51-0.44,15.51-0.44s11.52,4.43,16.83,1.77s10.63-25.25,13.29-19.94c2.66,5.32-3.1,19.05,3.54,19.94s23.07,1.96,23.07,1.96
	l-4.19-5.1l-4.78-9.97l-4.03-13.4l0.23-33.9l0.34-16.47l-0.16-14.37l1.18-5.71l4.13-6.67l32.61-41.91l6.7-7.19l7.05-5.85l7.72-6.85
	l5.85-5.7l9.51-8.61l10.43-10.31l3.56-5.58l1.63-9.38v-9.97l-0.6-7.24h-65.37h-24.79V29.94H371.2v39.63h-19.97h-57.31h-83.97
	c-0.32,27.68,5.52,30.6,5.52,30.6s13.96,0,16.55,9.09c2.6,9.09,6.89,22.96,5.52,29.86c-1.28,6.41-1.38,6.9-1.38,6.9l4.89-0.02
	c26.38,4.67,18.97,3.35,18.97,3.35l14.46,4.68l7.02,4.34l3.27,3.84l0.85,2.53l-1.23,3.48l-0.95,3.3l-1.29,7.2l-0.11,3.59l0.61,4.24
	l1.11,2.68l2.93,3.05l1.71,0.85l3.26,1.11l4.95,1.09l15.28,2.22l2.53,0.69l1.47,0.73l0.91,1.17v1.5l-0.91,1.07l-1.28,1.39
	l-2.01,1.84l-15.35,10.38l-1.78,1.76l-1.2,2.08l-0.91,1.76l-1.81,1.64l-1.49,1.3l-0.84,1.54l-0.43,2.13l0.43,7.45l0.97,6.67
	l0.72,7.72l-0.36,4.44l-0.75,2.15l-1.31,2.28l-1.41,2.02l-1.61,2.17l-1.41,1.83l-4.97,6.21l15.4,7.45l14.86,9.29l4,3.13l2.74,2.42
	l3.14,3.17l5.3,5.45l4.79,4.79l4.63,4.5l6.95,6.5l0.88-0.91l2.35-0.51l2.84,0.33l7.53,2.64l3.56,1.69l4.94,2.38L371.2,327.36z"/>
<path id="E" class="st3" d="M537.13,447.87c2.1,3.63,5.71,6.64,6.92,8.73c1.64,2.83,0.56,4.19,1.09,5.11
	c0.7,1.22,0.27,6.11-8.01,9.41c-8.99,3.59,12.09,13.49,12.09,13.49s6.75,0.48,9.16,6.26c2.41,5.78-2.61,12.05-2.61,12.05
	s-11.36,2.52-12.33,6.08s-5.78,4.04-3.37,12.23c2.41,8.19,2.41,12.53-0.96,16.87c-3.37,4.34-11.08,4.34-13.49,9.16
	s-7.71,13.98-7.71,13.98s20.89,9.64,20.57,13.49c-0.33,3.86,5.46,0,5.46,0c29.88,39.03,30.84,39.52,30.84,44.82s0.89,8.91,0.89,8.91
	h139.41V550.3h-70.01v-17.45l4.54-0.01l-0.73-44.86l19.03-0.33l-0.33-18.03l47.5-0.33v-36.78l-5.83-0.63l-9.67-0.8l-10.15-0.29
	l-4.62,0.41l-3.75,0.98l-5.79-0.8l-6.3-2.29l-4.84-1.97l-4.85-0.47l-7.17,1.5l-3.4,0.02l-15.73,1.14l-23,4.26l-16.31,5.22
	l-13.24,6.1l-6.43,3.78l-8.62,4.22l-4.45,1.17l-6.39,0.48l-5.22-0.79l-5.33-1.83l-3.84-2.03L537.13,447.87z"/>
<path id="SE" class="st4" d="M553.4,586.84c-1.75-2.28-5.62-7.33-5.81-7.57l0,0L553.4,586.84l7.63,9.95l7.1,9.39l3.1,4.32l2.87,4.83
	l0.77,4.11l0.89,8.91h139.41v262.96l-30.89,0.6c0,0,0.63,14.95,0,17.49c-0.63,2.53-21.53,3.17-23.43,3.17c-1.9,0,0,14.56,0,14.56
	l-18.68,1.9c0,0-6.02,1.9-9.82,20.26c-3.8,18.36-14.88,26.91-14.88,26.91s-11.4-9.82-16.78-13.61c-5.38-3.8-12.66-25.96-12.66-25.96
	s-13.61-12.66-11.71-28.81c1.9-16.15,0-9.82-1.27-14.88s4.43,0.63,0.95-3.48s3.8-3.48,4.12-7.6c0.32-4.12-9.5-4.12-9.5-4.12
	l-5.07-12.03c0,0,6.65-7.28,2.85-12.66c-3.8-5.38-4.34-16.38-5.25-23.67s17.33-20.06,24.17-29.64c6.84-9.58-3.65-20.52-8.21-27.36
	s2.28-10.94-2.74-19.61s-32.38-12.77-35.11-12.77S518.01,714,518.01,714s4.57-11.86-4.1-21.89s-1.37-18.7-4.56-31.92
	s-5.02-7.3-15.96-9.58c-10.94-2.28-5.01-5.15,4.24-17.97c9.25-12.81,20.38-28.18,20.37-35.1c-0.01-6.93-10.33-9.06-14.16-23.23
	c-3.36-12.4,5.36-7.42,11.66-11.04c0.9-0.52,1.75-1.21,2.51-2.15l17.43,9.71l0.65,0.5l1.02,0.88l1,1.12l0.35,0.61l0.13,0.66
	l0.07,0.92l0.6,0.69c0.46,0,0.97,0.2,1.38,0c3.4-1.61,3.38-1.44,3.38-1.44c4.42,5.57,4.42,5.57,4.42,5.57"/>
<path id="W" class="st5" d="M92.36,336.65c3.32,212.99,3.32,212.99,3.32,212.99h181.21v37.95h9.49v11.86H321v-8.54l19.36-0.8v-19.98
	h3.46V548.8l-19.18,0.53v-34.76h-17.85v-3.34l-6.93-0.27l-0.13-6.95l-23.01,0.37l0.11-32.92l11.14,0.12l-0.12-20.88l11.96-0.06
	l-0.04-25.21c0,0-4.66-4.42-15.57-5.14c-10.91-0.72-15.48-0.77-17.45-1.97c-1.97-1.2-7.5-2.16-8.22-4.13
	c-0.72-1.97-2.02-3.08-2.36-3.17c-0.34-0.1-1.63-2.45-1.73-3.27c-0.1-0.82-1.83-4.33-2.6-5c-0.77-0.67-1.01-0.62-1.2-2.21
	c-0.19-1.59-0.34-2.69-1.25-3.27c-0.91-0.58-1.73-3.08-2.69-3.25c-0.96-0.17-1.44-1.46-2.26-2.14c-0.82-0.67-0.82-1.15-0.82-1.15
	l-3.15-1.54l-6.06-2.52l-4.75-1.99l-3.34-1.4l-3.09-1.29l-3.89-1.63l-3.28-1.37l-2.68-1.12l-1.37-0.57l-1.01,1.99l-0.87,1.71
	l-2.75,5.4l-1.98-1.23l-7.98-6l-2.03-1.86l-1.15-1.15l-1.37-1.46l-1.38-1.63l-0.94-1.25l-0.95-1.39l-0.9-1.53l-0.72-1.44l-0.89-1.43
	l-1.38-1.49l-2.09-1.72l-4.37-2.82l-2.88-1.58l-2.87-1.45l-22.16-9.09l-8.04-2.79l-7.2-2.34l-3.6-1.03l-3.14-0.83l-2.91-0.77
	l-3.55-0.94l-2.57-0.68l-1.76-0.47l-4.96-1.32l-4.7-1.25l-2.58-0.69l-3.41-0.91l-2.79-0.74l-3.24-0.86l-2.64-0.7l-1.2-0.32
	C93.05,331.23,92.32,333.85,92.36,336.65z"/>
<path id="SW" class="st6" d="M617.48,976.2c-5.91,16.01-5.91,16.01-5.91,16.01h-95.95c0,0-25.86-44.27-28.14-50.45
	c-2.28-6.18-10.69-22.01-10.69-22.01c-5.19-1.48-5.19-1.48-5.19-1.48l-17.31,7.42c0,0,2.23,0.49-7.17,1.48
	c-9.4,0.99-11.13-9.64-17.8-11.62c-6.68-1.98-7.91-2.23-7.91-2.23l-48.72-1.24v-35.61h-48.22V865.6c0,0-0.97,2.21-10.08-6.89
	c-9.1-9.1-14.37-24.44-14.37-38.33c0-13.9,0.48-24.44-2.4-27.31c-2.87-2.87-17.25-15.81-18.21-27.31
	c-0.96-11.5-2.52-178.17-2.52-178.17h9.49v11.86H321v-8.54l19.36-0.8v-19.98h3.46V548.8h24.26l0.75,45.1l90.79-1.22
	c0,0,25.23-1.22,34.65,4.86c9.42,6.08,17.11,15.21,17.11,15.21l-9.29,13.69l-4.46,6.2l-4.28,5.61l-3.78,4.79l-1.47,2.21l-0.63,2.21
	l1.61,1.82l4.3,1.32l3.64,0.52l5.87,0.03l2.99,0.87l2.11,3.49l1.35,4.67l0.76,4.79l0.06,4.76l-0.23,3.37l-0.31,3.48l-0.15,3.1
	l0.14,2.94l0.81,3.61l1.85,3.72l1.62,2.13l2.18,2.98l2.1,4.61l0.9,4.4l0.11,2.94l-0.26,3.07l-0.93,3.89l2.4,3l4.08,5.03l4.26,5.12
	l4.74,5.49l3.36,3.66l4.42,3.68l3.27,0.35l12.81,2.62l10.72,3.64l4.9,2.71l3.41,3.45l1.44,3.3l0.42,4.94l-0.48,3.14l-0.07,5.07
	l1.42,3.16l2.13,3l1.62,2.22l2.56,3.76l1.81,3.15l1.41,3.24l0.78,3.13l0.11,2.93l-0.35,2.05l-1.86,3.87l-1.79,2.29l-7.41,7.73
	l-7.76,7.66l-3.61,4.05l-2.44,3.53l-0.94,2.15l-0.1,3.35l0.3,2.69l0.4,3.63l0.56,4.18l1.11,5.52l1.91,5.14l1.71,3.14l0.17,3.46
	l-0.88,2.78l-1.6,2.86l-1.4,1.82l5.07,12.03l6.54,0.97l2.15,1.19l0.81,1.95l-0.81,1.9l-1.72,1.34l-1.82,1.18l-0.7,1.28l0.94,1.9
	l1.12,1.6l-1.9-0.26l-0.17,2.14l0.68,1.76l1.27,2.01l0.1,2.67l-0.2,2.98l-0.41,4.05l-0.33,3.82l0.24,4.41l0.7,3.55l1,3.19l1.55,3.6
	l3.85,6.34l3.51,4.27l1.03,1.05l0.77,2.25l1.35,3.72l2.02,5.15l2.02,4.66l2.68,5.27l3.82,4.91l2.21,1.63l3.85,3.03l3.92,3.21
	l3.66,3.06L617.48,976.2z"/>
<path id="C" class="st7" d="M370.55,327.08c0,41.7,0,41.7,0,41.7h-6.99l-0.78-8.55l-10.36-0.52v-3.63h-5.7v3.11l-18.13-11.66
	l-1.19,1.91l-1.25,1.31l-1.44,0.4l-3.14-1.56l-4.13-2.43l-3.61-2.22l6.76,9.34l2.12,3.21l1.68,2.7l1.61,2.82l0.94,1.85l0.73,1.66
	l0.69,2.24l0.22,1.58l0.11,1.99l-0.01,2.29l-0.21,3.15l-0.43,3.61l-0.49,3.01l-0.43,2.18l-10.37-2.86l-7.49-1.39l-5.2-0.41
	l-3.96,0.28l-3.76,0.92l-4.37,1.58l-3.69,1.53l-3.67,1.38l-4.98,1.33l-4.34,0.63l-4.15,0.85l-4.72,1.94l-4.35,1.4l-2.78,0.27
	l-5.19-0.51l-5.07-1.26l-3.38-1.1l-2.03-0.42l0.82,1.15l1,1.16l0.57,0.62l0.69,0.36l0.96,0.85l0.66,1.06l1.06,1.34l0.83,1.1
	l0.32,1.41l0.22,1.5l1.08,1.47l1.22,1.82l0.7,1.38l0.68,1.8l0.56,1.5l1.17,1.77l1.25,1.17l0.6,0.92l0.5,1.08l1.24,1.26l1.91,0.9
	l5.07,1.97l2.16,0.74l2.52,0.36l3.1,0.26l2.81,0.18l3.1,0.19l7.05,0.59l3.54,0.71l1.94,0.56l1.86,0.68l1.64,0.74l1.29,0.7l2,1.41
	l0,3.11l0,3.11l0.03,18.99l-11.96,0.06l0.12,20.88l-11.14-0.12l-0.11,32.92l23.01-0.37l0.13,6.95l6.93,0.27v3.34h17.85v34.76
	l43.45-0.53l0.75,45.1l95.88-1.31l6.65,0.14l7.34,0.56l4.44,0.62l4.34,0.92l4.82,1.66l5.66,3.66l3.44,2.76l3.11,2.77l3.01,2.93
	l2.79,2.96l1.07,1.22l3.97-6.98l1.33-2.92l1.01-3.01l0.32-2.3l-0.46-2.42l-1.41-2.39l-2.25-2.52l-1.98-2.04l-2.42-2.74l-1.74-2.37
	l-3.19-6.45l-1.22-4.49l-0.22-2.76l0.36-1.77l1.13-1.42l2.76-0.96l3.61-0.5l2.85-0.68l2.6-1.39l1.57-1.52l1.29-2.34l2.3-4.08
	l1.79-3.24l1.42-2.66l1.31-2.41l1.83-1.78l3.02-1.67l3.22-1.41l3.03-1.69l1.86-1.74l1.48-2.32l0.7-1.77l0.48-3.22l-0.14-2.61
	l-0.69-3.72l-0.87-3.22l-0.5-2.13l-0.16-2.33l0.46-2.2l1.32-2.16l1.17-1.42l1.07-2l0.64-1.1l1.76-1.39l2.04-1.05l2.01-0.81l3.07-1
	l2.82-0.74l1-1.47l1.27-2.53l0.89-3.24l0.08-2.15l-0.63-2.66l-1.64-2.61l-2.32-1.92l-2.07-0.99l-3.12-0.75l-1.9-0.95l-2.54-1.37
	l-2.69-1.59l-2.72-1.82l-1.83-1.45l-1.84-1.95l-0.69-1.3l-0.02-1.24l0.69-0.99l1.46-0.84l2.17-0.99l2.06-1.25l1.63-1.35l1.52-1.91
	l0.71-1.69l0.15-1.16l-0.38-1.54l0.01-1.63l-0.12-0.92l-0.38-1.17l-0.45-0.9l-0.86-1.22l-1.37-1.58l-0.92-1.03l-1.04-1.19l-0.83-1
	l-1.06-1.42l-0.42-0.64l-1.83-1.75l-3.9-3.47l-2.83-2.98l-5.61-7.25l-3.48-5.64l-3.17-5.68l-3.02-5.21l-3.89-6.71l-3.2-5.53
	l-1.14-2.69l-0.79-3.05l-0.24-2.31l-0.06-4.51l0.39-5.84l0.4-7.8l-0.02-4.15l-0.18-2.57l-0.2-0.59l-0.8-1.23l-0.91-1.32l-1.01-1.58
	l-1.79-2.95l-2.26-3.32l-2.36-3.21l-8.45-10.72l-4.35-5.57l-1.05-1.84l-0.83-2.04l-1.07-4.27l-0.55-4.31l-0.38-6.17l-0.09-4.13
	l-0.29-6.13l-8.42-0.96l-6.69-0.54l-3.09-0.28l-3.73-0.38l-2.85-0.55l-1.37-1.32l-0.65-2l-0.15-1.58l0-1.74l0.19-2.89l0.18-2.13
	l0.13-1.99l0.04-1.55l-0.14-2.25l-0.33-1.44l-0.28-0.69l-0.63-0.74h-0.6l-0.6,0.45l-0.86,1.16l-0.79,1.41l-1.2,2.51l-4.59,10.02
	l-1.6,2.69l-0.83,1.08l-0.75,0.76l-0.84,0.58l-0.95,0.38l-1.2,0.29l-1.35,0.15l-1.93,0l-5.03-0.72l-2.6-0.65l-3.78-1.22l-15.51,0.44
	l-1.59-0.1l-1.91-0.26l-2.31-0.41l-2.69-0.56l-1.39-0.32l-0.36-0.09l-0.13-0.13l-0.17,0l-0.37,0.19l-0.5,0.46l-0.64,0.76l-0.73,0.99
	l-0.65,0.96l-0.76,1.2l-1.04,1.74l-1.22,2.13l-0.66,1.03l-0.73,0.99l-0.82,0.98l-1.09,1.13l-0.92,0.85l-2.08,1.64l-0.8,0.55
	l-1.14,0.73l-1.4,0.8l-1.49,0.76l-1.3,0.6l-2.02,0.82l-1.73,0.61L370.55,327.08z"/>
</svg>
